<?xml version="1.0" encoding="iso-8859-1"?>
<!-- Generator: Adobe Illustrator 19.0.0, SVG Export Plug-In . SVG Version: 6.00 Build 0)  -->
<svg version="1.1" id="Capa_1" xmlns="http://www.w3.org/2000/svg" xmlns:xlink="http://www.w3.org/1999/xlink" x="0px" y="0px"
	 viewBox="0 0 480 480" style="enable-background:new 0 0 480 480;" xml:space="preserve">
<g>
	<g>
		<path d="M168,384h-24c0-13.232-10.768-24-24-24H77.76l-10.528-31.592C63.96,318.592,54.816,312,44.472,312h-14.28
			c-7.816,0-14.904,3.64-19.472,9.976c-4.568,6.336-5.76,14.216-3.28,21.608l6.272,18.824C5.632,366.28,0,374.464,0,384v88
			c0,4.416,3.576,8,8,8h176c4.424,0,8-3.584,8-8v-40c4.424,0,8-3.584,8-8v-8C200,398.352,185.648,384,168,384z M23.704,331.328
			c1.52-2.12,3.888-3.328,6.488-3.328h14.272c3.448,0,6.496,2.2,7.592,5.472L60.896,360H29.768l-7.16-21.48
			C21.792,336.056,22.184,333.432,23.704,331.328z M176,464H16v-80c0-4.408,3.584-8,8-8h48h48c4.416,0,8,3.592,8,8v8v32
			c0,4.416,3.576,8,8,8h40V464z M144,416v-16h24c8.824,0,16,7.176,16,16H144z"/>
	</g>
</g>
<g>
	<g>
		<path d="M466.288,362.408l6.272-18.816c2.48-7.4,1.272-15.288-3.288-21.624S457.616,312,449.808,312h-14.272
			c-10.344,0-19.496,6.592-22.768,16.408L402.24,360H360c-13.232,0-24,10.768-24,24h-24c-17.648,0-32,14.352-32,32v8
			c0,4.416,3.576,8,8,8v40c0,4.416,3.576,8,8,8h176c4.424,0,8-3.584,8-8v-88C480,374.464,474.368,366.28,466.288,362.408z
			 M427.936,333.472c1.096-3.272,4.152-5.472,7.592-5.472H449.8c2.6,0,4.968,1.208,6.496,3.328c1.512,2.112,1.912,4.736,1.096,7.208
			L450.232,360h-31.136L427.936,333.472z M312,400h24v16h-40C296,407.176,303.176,400,312,400z M464,464H304v-32h40
			c4.424,0,8-3.584,8-8v-32v-8c0-4.408,3.584-8,8-8h48h48c4.416,0,8,3.592,8,8V464z"/>
	</g>
</g>
<g>
	<g>
		<path d="M280,160h-16v-24c0-4.416-3.576-8-8-8h-32c-4.424,0-8,3.584-8,8v24h-16v-16c0-11.68-6.352-21.808-15.72-27.4
			c4.744-5.584,7.72-12.712,7.72-20.6c0-17.648-14.352-32-32-32s-32,14.352-32,32c0,7.888,2.976,15.016,7.72,20.6
			C126.352,122.192,120,132.32,120,144v16H64v-16h24c4.424,0,8-3.584,8-8V88c0-4.416-3.576-8-8-8H24c-4.424,0-8,3.584-8,8v48
			c0,4.416,3.576,8,8,8h24v16H8c-4.424,0-8,3.584-8,8v32c0,4.416,3.576,8,8,8h8v80c0,4.416,3.576,8,8,8h240c4.424,0,8-3.584,8-8v-80
			h8c4.424,0,8-3.584,8-8v-32C288,163.584,284.424,160,280,160z M232,144h16v16h-16V144z M160,80c8.824,0,16,7.176,16,16
			s-7.176,16-16,16c-8.824,0-16-7.176-16-16S151.176,80,160,80z M136,144c0-8.824,7.176-16,16-16h16c8.824,0,16,7.176,16,16v16h-48
			V144z M32,128V96h48v32H32z M256,280H32v-72h224V280z M272,192h-8H24h-8v-16h112h64h32h32h16V192z"/>
	</g>
</g>
<g>
	<g>
		<path d="M472,24h-48V8c0-4.416-3.576-8-8-8h-48c-4.424,0-8,3.584-8,8v16h-48c-4.424,0-8,3.584-8,8v240c0,4.416,3.576,8,8,8h32h96
			h32c4.424,0,8-3.584,8-8V32C480,27.584,476.424,24,472,24z M376,16h32v16h-32V16z M384,152h-16v16h16v96h-32V80h32V152z M432,264
			h-32v-96h16v-16h-16V80h32V264z M464,264h-16V72c0-4.416-3.576-8-8-8h-96c-4.424,0-8,3.584-8,8v192h-16V40h40c0,4.416,3.576,8,8,8
			h48c4.424,0,8-3.584,8-8h40V264z"/>
	</g>
</g>
<g>
</g>
<g>
</g>
<g>
</g>
<g>
</g>
<g>
</g>
<g>
</g>
<g>
</g>
<g>
</g>
<g>
</g>
<g>
</g>
<g>
</g>
<g>
</g>
<g>
</g>
<g>
</g>
<g>
</g>
</svg>
