<?xml version="1.0" encoding="iso-8859-1"?>
<!-- Generator: Adobe Illustrator 19.0.0, SVG Export Plug-In . SVG Version: 6.00 Build 0)  -->
<svg version="1.1" id="Capa_1" xmlns="http://www.w3.org/2000/svg" xmlns:xlink="http://www.w3.org/1999/xlink" x="0px" y="0px"
	 viewBox="0 0 512.001 512.001" style="enable-background:new 0 0 512.001 512.001;" xml:space="preserve">
<g>
	<g>
		<path d="M466.864,378.772h-19.327c-4.143,0-7.5,3.357-7.5,7.5c0,4.142,3.358,7.5,7.5,7.5h19.327c4.143,0,7.5-3.357,7.5-7.5
			S471.007,378.772,466.864,378.772z"/>
	</g>
</g>
<g>
	<g>
		<path d="M501.32,352.764v-24.69c0-6.893-5.607-12.5-12.5-12.5h-63.238c-6.892,0-12.5,5.607-12.5,12.5c0,0-0.03,12.104,0,12.462
			c-2.854-5.933-8.855-10.048-15.865-10.048h-17.93v-52.379c0-9.649-7.851-17.5-17.5-17.5H121.384c-9.649,0-17.5,7.851-17.5,17.5
			v52.379h-17.93c-9.744,0-17.672,7.931-17.672,17.678v73.506H55.635V243.35H83.77c6.893,0,12.5-5.607,12.5-12.5V202
			c0-4.143-3.357-7.5-7.5-7.5s-7.5,3.357-7.5,7.5v26.35H15v-85.768h66.27V165c0,4.143,3.357,7.5,7.5,7.5s7.5-3.357,7.5-7.5v-24.918
			c0-6.893-5.607-12.5-12.5-12.5H12.5c-6.893,0-12.5,5.607-12.5,12.5v90.768c0,6.893,5.607,12.5,12.5,12.5h28.135v178.322H20.12
			c-6.893,0-12.5,5.607-12.5,12.5v13.557c0,6.893,5.607,12.5,12.5,12.5l95.333-0.072c6.939,0,12.586-5.648,12.586-12.59v-13.039H294
			c4.143,0,7.5-3.357,7.5-7.5s-3.357-7.5-7.5-7.5H128.039v-36.449h227.093v36.449H334c-4.143,0-7.5,3.357-7.5,7.5s3.357,7.5,7.5,7.5
			h21.132v13.039c0,6.942,5.646,12.59,12.586,12.59h56.189c6.892,0,12.5-5.608,12.5-12.5v-13.26h41.588v13.26
			c0,6.892,5.607,12.5,12.5,12.5h9.006c6.893,0,12.5-5.608,12.5-12.5v-20.76v-22.41v-39.293
			C512,358.9,507.356,353.688,501.32,352.764z M68.282,445.228H22.62v-8.557h45.662V445.228z M113.039,445.156H83.282v-96.99
			c0-1.451,1.224-2.678,2.672-2.678h24.412c1.449,0,2.673,1.227,2.673,2.678V445.156z M198.483,368.078h-39.929v-39.541h39.929
			V368.078z M328.685,368.078h-39.929v-39.541h39.929V368.078z M364.286,332.685c-5.452,3.014-9.155,8.821-9.155,15.48v19.912
			h-11.446v-42.04c0-6.893-5.608-12.5-12.5-12.5h-44.929c-6.893,0-12.5,5.607-12.5,12.5v42.041h-24.671V325
			c0-4.143-3.358-7.5-7.5-7.5c-4.143,0-7.5,3.357-7.5,7.5v43.078h-20.602v-42.041c0-6.893-5.607-12.5-12.5-12.5h-44.929
			c-6.893,0-12.5,5.607-12.5,12.5v42.041h-15.516v-19.912c0-6.659-3.703-12.466-9.155-15.479V278.11c0-1.355,1.145-2.5,2.5-2.5
			h112.701V292c0,4.143,3.357,7.5,7.5,7.5c4.142,0,7.5-3.357,7.5-7.5v-16.391h112.702c1.355,0,2.5,1.145,2.5,2.5V332.685z
			 M399.889,445.156h-29.757v-96.99c0-1.451,1.224-2.678,2.672-2.678h24.413c1.448,0,2.672,1.227,2.672,2.678V445.156z
			 M428.082,330.574h58.238v4.338h-58.238V330.574z M428.082,349.912h58.238v2.691h-58.238V349.912z M421.406,445.156H417.4v-10.76
			h4.006V445.156z M497,445.156h-4.006v-10.76H497V445.156z M497,419.397h-79.6v-6.215H497V419.397z M497,398.182h-79.6v-30.578H497
			V398.182z"/>
	</g>
</g>
<g>
	<g>
		<path d="M353.958,74.816H129.213c-7.059,0-12.801,5.744-12.801,12.805v124.115c0,7.061,5.742,12.805,12.801,12.805h224.745
			c7.059,0,12.801-5.744,12.801-12.805V87.621C366.759,80.56,361.017,74.816,353.958,74.816z M351.759,209.542H131.412V89.816
			h220.347V209.542z"/>
	</g>
</g>
<g>
	<g>
		<path d="M435.06,233.144c-11.042-3.476-12.057-4.504-15.512-15.729c-1.329-4.291-5.23-7.175-9.709-7.175
			c-4.491,0-8.394,2.893-9.708,7.187c-3.45,11.211-4.465,12.239-15.516,15.718c-4.256,1.342-7.115,5.25-7.115,9.725
			c0,4.476,2.859,8.384,7.116,9.726c11.05,3.481,12.064,4.51,15.509,15.7c1.315,4.309,5.218,7.204,9.714,7.204
			c4.483,0,8.386-2.886,9.712-7.185c3.452-11.211,4.467-12.239,15.51-15.719c4.257-1.341,7.117-5.249,7.117-9.727
			C442.178,238.392,439.318,234.485,435.06,233.144z M409.841,252.362c-2.369-4.203-5.27-7.108-9.469-9.49
			c4.197-2.382,7.099-5.288,9.469-9.491c2.369,4.203,5.271,7.109,9.466,9.491C415.112,245.253,412.21,248.159,409.841,252.362z"/>
	</g>
</g>
<g>
	<g>
		<path d="M474.182,123.17c-12.48-3.931-13.805-5.272-17.709-17.949c-1.364-4.413-5.376-7.379-9.981-7.379
			c-4.62,0-8.633,2.976-9.979,7.389c-3.897,12.665-5.222,14.007-17.707,17.938c-4.378,1.377-7.319,5.396-7.319,10.001
			c-0.001,4.605,2.941,8.625,7.316,10.001c12.487,3.936,13.812,5.276,17.702,17.915c1.349,4.435,5.362,7.414,9.987,7.414
			c4.61,0,8.623-2.97,9.984-7.389c3.902-12.666,5.225-14.007,17.704-17.939c4.378-1.377,7.319-5.396,7.319-10.002
			C481.499,128.565,478.558,124.547,474.182,123.17z M446.496,145.326c-2.892-5.678-6.453-9.244-12.124-12.155
			c5.669-2.908,9.231-6.477,12.123-12.156c2.892,5.68,6.452,9.247,12.121,12.156C452.948,136.081,449.387,139.649,446.496,145.326z"
			/>
	</g>
</g>
<g>
	<g>
		<path d="M98.258,70.785c-8.704-2.741-9.265-3.31-11.991-12.168C85,54.522,81.275,51.771,77,51.771
			c-4.287,0-8.014,2.759-9.271,6.859c-2.721,8.843-3.281,9.41-11.985,12.151c-4.066,1.278-6.799,5.008-6.799,9.282
			c0,4.277,2.733,8.007,6.793,9.284c8.709,2.744,9.269,3.312,11.987,12.143c1.258,4.109,4.985,6.871,9.274,6.871
			c4.277,0,8.003-2.753,9.272-6.859c2.724-8.845,3.283-9.412,11.98-12.153c4.067-1.276,6.8-5.008,6.8-9.284
			C105.051,75.79,102.319,72.06,98.258,70.785z M77.001,85.49c-1.489-2.182-3.233-3.928-5.413-5.422
			c2.181-1.495,3.924-3.241,5.413-5.423c1.489,2.182,3.232,3.928,5.412,5.422C80.233,81.56,78.489,83.307,77.001,85.49z"/>
	</g>
</g>
<g>
	<g>
		<path d="M338.057,96.034H145.114c-4.143,0-7.5,3.357-7.5,7.5v92.289c0,4.143,3.357,7.5,7.5,7.5h192.942c4.143,0,7.5-3.357,7.5-7.5
			v-92.289C345.557,99.391,342.199,96.034,338.057,96.034z M164.016,188.323l20.955-32.044l20.954,32.044H164.016z M223.848,188.322
			L223.848,188.322l-8.778-13.423l26.155-39.996l34.932,53.419H223.848z M249.142,119.605c-1.814-2.774-4.774-4.43-7.918-4.43
			c-3.143,0-6.104,1.655-7.919,4.431l-27.197,41.59l-13.22-20.216c-1.814-2.774-4.774-4.431-7.918-4.431s-6.104,1.656-7.919,4.432
			l-24.438,37.37v-67.317h177.942v67.315L306.784,142c-1.814-2.776-4.774-4.434-7.92-4.434c-3.145,0-6.106,1.657-7.919,4.432
			l-13.579,20.768L249.142,119.605z M294.078,188.321v0.001l-7.751-11.854l12.537-19.173l20.29,31.026H294.078z"/>
	</g>
</g>
<g>
</g>
<g>
</g>
<g>
</g>
<g>
</g>
<g>
</g>
<g>
</g>
<g>
</g>
<g>
</g>
<g>
</g>
<g>
</g>
<g>
</g>
<g>
</g>
<g>
</g>
<g>
</g>
<g>
</g>
</svg>
